<mxfile host="Electron" modified="2023-06-12T12:49:48.767Z" agent="Mozilla/5.0 (Windows NT 10.0; Win64; x64) AppleWebKit/537.36 (KHTML, like Gecko) draw.io/21.3.7 Chrome/112.0.5615.204 Electron/24.5.0 Safari/537.36" etag="bKGb2f2mj3W8KqvbeHdJ" version="21.3.7" type="device">
  <diagram id="knbwnQcTv-inbS4ywAi0" name="Страница 1">
    <mxGraphModel dx="1418" dy="820" grid="1" gridSize="10" guides="1" tooltips="1" connect="1" arrows="1" fold="1" page="1" pageScale="1" pageWidth="827" pageHeight="1169" math="0" shadow="0">
      <root>
        <mxCell id="0" />
        <mxCell id="1" parent="0" />
        <mxCell id="ZPj0phDFXhpV-8Qk1H-s-3" value="" style="edgeStyle=orthogonalEdgeStyle;rounded=0;orthogonalLoop=1;jettySize=auto;html=1;" parent="1" source="ZPj0phDFXhpV-8Qk1H-s-1" target="ZPj0phDFXhpV-8Qk1H-s-2" edge="1">
          <mxGeometry relative="1" as="geometry" />
        </mxCell>
        <mxCell id="ZPj0phDFXhpV-8Qk1H-s-1" value="Start" style="ellipse;whiteSpace=wrap;html=1;" parent="1" vertex="1">
          <mxGeometry x="125" y="18" width="110" height="50" as="geometry" />
        </mxCell>
        <mxCell id="ZPj0phDFXhpV-8Qk1H-s-5" value="" style="edgeStyle=orthogonalEdgeStyle;rounded=0;orthogonalLoop=1;jettySize=auto;html=1;exitX=0.5;exitY=1;exitDx=0;exitDy=0;" parent="1" source="ZPj0phDFXhpV-8Qk1H-s-2" target="ZPj0phDFXhpV-8Qk1H-s-4" edge="1">
          <mxGeometry relative="1" as="geometry">
            <mxPoint x="180" y="208" as="sourcePoint" />
          </mxGeometry>
        </mxCell>
        <mxCell id="ZPj0phDFXhpV-8Qk1H-s-2" value="size&lt;br&gt;array1&lt;br&gt;int i = 0&lt;br&gt;int n = 0&lt;br&gt;int j =0" style="whiteSpace=wrap;html=1;" parent="1" vertex="1">
          <mxGeometry x="117.5" y="108" width="125" height="80" as="geometry" />
        </mxCell>
        <mxCell id="ZPj0phDFXhpV-8Qk1H-s-7" value="Yes" style="edgeStyle=orthogonalEdgeStyle;rounded=0;orthogonalLoop=1;jettySize=auto;html=1;" parent="1" source="ZPj0phDFXhpV-8Qk1H-s-4" target="ZPj0phDFXhpV-8Qk1H-s-6" edge="1">
          <mxGeometry relative="1" as="geometry" />
        </mxCell>
        <mxCell id="suWfCgVM4a9AqbvQpMlS-3" value="No" style="edgeStyle=orthogonalEdgeStyle;rounded=0;orthogonalLoop=1;jettySize=auto;html=1;" parent="1" source="ZPj0phDFXhpV-8Qk1H-s-4" edge="1">
          <mxGeometry x="-0.9225" relative="1" as="geometry">
            <mxPoint x="180" y="568" as="targetPoint" />
            <Array as="points">
              <mxPoint x="305" y="258" />
              <mxPoint x="305" y="510" />
              <mxPoint x="180" y="510" />
            </Array>
            <mxPoint as="offset" />
          </mxGeometry>
        </mxCell>
        <mxCell id="ZPj0phDFXhpV-8Qk1H-s-4" value="i &amp;lt; size" style="rhombus;whiteSpace=wrap;html=1;" parent="1" vertex="1">
          <mxGeometry x="103.75" y="228" width="152.5" height="60" as="geometry" />
        </mxCell>
        <mxCell id="ZPj0phDFXhpV-8Qk1H-s-9" value="" style="edgeStyle=orthogonalEdgeStyle;rounded=0;orthogonalLoop=1;jettySize=auto;html=1;" parent="1" source="ZPj0phDFXhpV-8Qk1H-s-6" target="ZPj0phDFXhpV-8Qk1H-s-8" edge="1">
          <mxGeometry relative="1" as="geometry" />
        </mxCell>
        <mxCell id="ZPj0phDFXhpV-8Qk1H-s-6" value="array1 [ i ] = resalt" style="whiteSpace=wrap;html=1;" parent="1" vertex="1">
          <mxGeometry x="120" y="338" width="120" height="50" as="geometry" />
        </mxCell>
        <mxCell id="suWfCgVM4a9AqbvQpMlS-1" style="edgeStyle=orthogonalEdgeStyle;rounded=0;orthogonalLoop=1;jettySize=auto;html=1;entryX=0;entryY=0.5;entryDx=0;entryDy=0;exitX=0.5;exitY=1;exitDx=0;exitDy=0;" parent="1" source="ZPj0phDFXhpV-8Qk1H-s-8" target="ZPj0phDFXhpV-8Qk1H-s-4" edge="1">
          <mxGeometry relative="1" as="geometry">
            <Array as="points">
              <mxPoint x="180" y="490" />
              <mxPoint x="75" y="490" />
              <mxPoint x="75" y="258" />
            </Array>
          </mxGeometry>
        </mxCell>
        <mxCell id="ZPj0phDFXhpV-8Qk1H-s-8" value="i +1" style="whiteSpace=wrap;html=1;" parent="1" vertex="1">
          <mxGeometry x="137.5" y="418" width="85" height="40" as="geometry" />
        </mxCell>
        <mxCell id="suWfCgVM4a9AqbvQpMlS-7" value="Yes" style="edgeStyle=orthogonalEdgeStyle;rounded=0;orthogonalLoop=1;jettySize=auto;html=1;" parent="1" source="suWfCgVM4a9AqbvQpMlS-5" target="suWfCgVM4a9AqbvQpMlS-6" edge="1">
          <mxGeometry relative="1" as="geometry" />
        </mxCell>
        <mxCell id="suWfCgVM4a9AqbvQpMlS-17" value="" style="edgeStyle=orthogonalEdgeStyle;rounded=0;orthogonalLoop=1;jettySize=auto;html=1;" parent="1" source="suWfCgVM4a9AqbvQpMlS-5" target="suWfCgVM4a9AqbvQpMlS-16" edge="1">
          <mxGeometry relative="1" as="geometry" />
        </mxCell>
        <mxCell id="suWfCgVM4a9AqbvQpMlS-5" value="i &amp;lt; array1.Length&amp;nbsp;" style="rhombus;whiteSpace=wrap;html=1;" parent="1" vertex="1">
          <mxGeometry x="97.5" y="568" width="165" height="80" as="geometry" />
        </mxCell>
        <mxCell id="suWfCgVM4a9AqbvQpMlS-9" value="Yes" style="edgeStyle=orthogonalEdgeStyle;rounded=0;orthogonalLoop=1;jettySize=auto;html=1;" parent="1" source="suWfCgVM4a9AqbvQpMlS-6" target="suWfCgVM4a9AqbvQpMlS-8" edge="1">
          <mxGeometry relative="1" as="geometry" />
        </mxCell>
        <mxCell id="suWfCgVM4a9AqbvQpMlS-12" value="No" style="edgeStyle=orthogonalEdgeStyle;rounded=0;orthogonalLoop=1;jettySize=auto;html=1;exitX=1;exitY=0.5;exitDx=0;exitDy=0;entryX=1;entryY=0.5;entryDx=0;entryDy=0;" parent="1" source="suWfCgVM4a9AqbvQpMlS-6" target="suWfCgVM4a9AqbvQpMlS-10" edge="1">
          <mxGeometry x="-0.8788" relative="1" as="geometry">
            <Array as="points">
              <mxPoint x="295" y="733" />
              <mxPoint x="295" y="908" />
            </Array>
            <mxPoint x="1" as="offset" />
          </mxGeometry>
        </mxCell>
        <mxCell id="suWfCgVM4a9AqbvQpMlS-6" value="array1[i].Length &amp;lt;= 3&amp;nbsp;" style="rhombus;whiteSpace=wrap;html=1;" parent="1" vertex="1">
          <mxGeometry x="102.5" y="698" width="155" height="70" as="geometry" />
        </mxCell>
        <mxCell id="suWfCgVM4a9AqbvQpMlS-11" value="" style="edgeStyle=orthogonalEdgeStyle;rounded=0;orthogonalLoop=1;jettySize=auto;html=1;" parent="1" source="suWfCgVM4a9AqbvQpMlS-8" target="suWfCgVM4a9AqbvQpMlS-10" edge="1">
          <mxGeometry relative="1" as="geometry" />
        </mxCell>
        <mxCell id="suWfCgVM4a9AqbvQpMlS-8" value="n +1" style="whiteSpace=wrap;html=1;" parent="1" vertex="1">
          <mxGeometry x="142.5" y="808" width="75" height="40" as="geometry" />
        </mxCell>
        <mxCell id="suWfCgVM4a9AqbvQpMlS-13" style="edgeStyle=orthogonalEdgeStyle;rounded=0;orthogonalLoop=1;jettySize=auto;html=1;entryX=0;entryY=0.5;entryDx=0;entryDy=0;" parent="1" source="suWfCgVM4a9AqbvQpMlS-10" target="suWfCgVM4a9AqbvQpMlS-5" edge="1">
          <mxGeometry relative="1" as="geometry">
            <Array as="points">
              <mxPoint x="70" y="908" />
              <mxPoint x="70" y="608" />
            </Array>
          </mxGeometry>
        </mxCell>
        <mxCell id="suWfCgVM4a9AqbvQpMlS-10" value="i + 1" style="whiteSpace=wrap;html=1;" parent="1" vertex="1">
          <mxGeometry x="141.25" y="888" width="77.5" height="40" as="geometry" />
        </mxCell>
        <mxCell id="suWfCgVM4a9AqbvQpMlS-21" value="Yes" style="edgeStyle=orthogonalEdgeStyle;rounded=0;orthogonalLoop=1;jettySize=auto;html=1;" parent="1" source="suWfCgVM4a9AqbvQpMlS-14" target="suWfCgVM4a9AqbvQpMlS-20" edge="1">
          <mxGeometry relative="1" as="geometry" />
        </mxCell>
        <mxCell id="suWfCgVM4a9AqbvQpMlS-31" style="edgeStyle=orthogonalEdgeStyle;rounded=0;orthogonalLoop=1;jettySize=auto;html=1;exitX=1;exitY=0.5;exitDx=0;exitDy=0;entryX=0;entryY=0.5;entryDx=0;entryDy=0;" parent="1" source="suWfCgVM4a9AqbvQpMlS-14" target="suWfCgVM4a9AqbvQpMlS-29" edge="1">
          <mxGeometry relative="1" as="geometry" />
        </mxCell>
        <mxCell id="suWfCgVM4a9AqbvQpMlS-14" value="i &amp;lt; array1.Length&amp;nbsp;" style="rhombus;whiteSpace=wrap;html=1;" parent="1" vertex="1">
          <mxGeometry x="446.25" y="668" width="157.5" height="62" as="geometry" />
        </mxCell>
        <mxCell id="suWfCgVM4a9AqbvQpMlS-18" value="No" style="edgeStyle=orthogonalEdgeStyle;rounded=0;orthogonalLoop=1;jettySize=auto;html=1;" parent="1" source="suWfCgVM4a9AqbvQpMlS-5" target="suWfCgVM4a9AqbvQpMlS-16" edge="1">
          <mxGeometry x="-0.2394" relative="1" as="geometry">
            <mxPoint x="263" y="608" as="sourcePoint" />
            <mxPoint x="520" y="608" as="targetPoint" />
            <mxPoint as="offset" />
          </mxGeometry>
        </mxCell>
        <mxCell id="suWfCgVM4a9AqbvQpMlS-19" style="edgeStyle=orthogonalEdgeStyle;rounded=0;orthogonalLoop=1;jettySize=auto;html=1;exitX=0.5;exitY=1;exitDx=0;exitDy=0;entryX=0.5;entryY=0;entryDx=0;entryDy=0;" parent="1" source="suWfCgVM4a9AqbvQpMlS-16" target="suWfCgVM4a9AqbvQpMlS-14" edge="1">
          <mxGeometry relative="1" as="geometry" />
        </mxCell>
        <mxCell id="suWfCgVM4a9AqbvQpMlS-16" value="string[] array2 = new string[n]" style="whiteSpace=wrap;html=1;" parent="1" vertex="1">
          <mxGeometry x="440" y="578" width="170" height="60" as="geometry" />
        </mxCell>
        <mxCell id="suWfCgVM4a9AqbvQpMlS-23" value="Yes" style="edgeStyle=orthogonalEdgeStyle;rounded=0;orthogonalLoop=1;jettySize=auto;html=1;" parent="1" source="suWfCgVM4a9AqbvQpMlS-20" target="suWfCgVM4a9AqbvQpMlS-22" edge="1">
          <mxGeometry relative="1" as="geometry" />
        </mxCell>
        <mxCell id="suWfCgVM4a9AqbvQpMlS-26" value="No" style="edgeStyle=orthogonalEdgeStyle;rounded=0;orthogonalLoop=1;jettySize=auto;html=1;exitX=1;exitY=0.5;exitDx=0;exitDy=0;entryX=1;entryY=0.5;entryDx=0;entryDy=0;" parent="1" source="suWfCgVM4a9AqbvQpMlS-20" target="suWfCgVM4a9AqbvQpMlS-24" edge="1">
          <mxGeometry x="-0.8885" relative="1" as="geometry">
            <Array as="points">
              <mxPoint x="630" y="814" />
              <mxPoint x="630" y="997" />
            </Array>
            <mxPoint as="offset" />
          </mxGeometry>
        </mxCell>
        <mxCell id="suWfCgVM4a9AqbvQpMlS-20" value="array1[i].Length &amp;lt;= 3" style="rhombus;whiteSpace=wrap;html=1;" parent="1" vertex="1">
          <mxGeometry x="457.5" y="779" width="135" height="69" as="geometry" />
        </mxCell>
        <mxCell id="suWfCgVM4a9AqbvQpMlS-25" value="" style="edgeStyle=orthogonalEdgeStyle;rounded=0;orthogonalLoop=1;jettySize=auto;html=1;" parent="1" source="suWfCgVM4a9AqbvQpMlS-22" target="suWfCgVM4a9AqbvQpMlS-24" edge="1">
          <mxGeometry relative="1" as="geometry" />
        </mxCell>
        <mxCell id="suWfCgVM4a9AqbvQpMlS-22" value="array2[j] = array1[i]" style="whiteSpace=wrap;html=1;" parent="1" vertex="1">
          <mxGeometry x="465" y="900" width="120" height="47.5" as="geometry" />
        </mxCell>
        <mxCell id="suWfCgVM4a9AqbvQpMlS-28" style="edgeStyle=orthogonalEdgeStyle;rounded=0;orthogonalLoop=1;jettySize=auto;html=1;exitX=0;exitY=0.5;exitDx=0;exitDy=0;entryX=0;entryY=0.5;entryDx=0;entryDy=0;" parent="1" source="suWfCgVM4a9AqbvQpMlS-24" target="suWfCgVM4a9AqbvQpMlS-14" edge="1">
          <mxGeometry relative="1" as="geometry">
            <Array as="points">
              <mxPoint x="420" y="997" />
              <mxPoint x="420" y="699" />
            </Array>
          </mxGeometry>
        </mxCell>
        <mxCell id="suWfCgVM4a9AqbvQpMlS-24" value="i + 1" style="whiteSpace=wrap;html=1;" parent="1" vertex="1">
          <mxGeometry x="492.5" y="980" width="65" height="34.5" as="geometry" />
        </mxCell>
        <mxCell id="suWfCgVM4a9AqbvQpMlS-33" value="" style="edgeStyle=orthogonalEdgeStyle;rounded=0;orthogonalLoop=1;jettySize=auto;html=1;exitX=0.482;exitY=0.838;exitDx=0;exitDy=0;exitPerimeter=0;entryX=0.5;entryY=0;entryDx=0;entryDy=0;" parent="1" source="suWfCgVM4a9AqbvQpMlS-29" target="suWfCgVM4a9AqbvQpMlS-34" edge="1">
          <mxGeometry relative="1" as="geometry">
            <mxPoint x="725" y="810" as="targetPoint" />
          </mxGeometry>
        </mxCell>
        <mxCell id="suWfCgVM4a9AqbvQpMlS-29" value="Print&amp;nbsp;array1&lt;br&gt;Print&amp;nbsp;array2" style="shape=document;whiteSpace=wrap;html=1;boundedLbl=1;" parent="1" vertex="1">
          <mxGeometry x="670" y="663.5" width="110" height="71" as="geometry" />
        </mxCell>
        <mxCell id="suWfCgVM4a9AqbvQpMlS-34" value="End" style="ellipse;whiteSpace=wrap;html=1;" parent="1" vertex="1">
          <mxGeometry x="665" y="773.5" width="115" height="66.5" as="geometry" />
        </mxCell>
      </root>
    </mxGraphModel>
  </diagram>
</mxfile>
